<svg viewBox="0 0 125 125" fill="none" xmlns="http://www.w3.org/2000/svg">
<circle cx="62.5" cy="62.5" r="62.5" fill="#6172FF"/>
<path d="M71.0267 88.4979C71.0267 93.6635 79.1934 95.8333 79.1934 95.8333H46.2559C46.2559 95.8333 54.4225 93.6635 54.4225 88.4979V83.3594H70.8579L71.0267 88.4979Z" fill="#D0CFCE"/>
<path d="M90.8259 83.3333H34.6155C33.2136 83.3331 31.8693 82.776 30.8781 81.7846C29.8869 80.7932 29.3301 79.4488 29.3301 78.0469V41.701C29.3301 40.2992 29.8869 38.9547 30.8781 37.9633C31.8693 36.972 33.2136 36.4149 34.6155 36.4146H90.8259C92.228 36.4146 93.5726 36.9716 94.564 37.963C95.5554 38.9544 96.1124 40.299 96.1124 41.701V78.0469C96.1124 79.4489 95.5554 80.7936 94.564 81.785C93.5726 82.7764 92.228 83.3333 90.8259 83.3333Z" fill="#9B9B9A"/>
<path d="M95.3596 73.6677L29.3867 50.2094V40.3573C29.3867 39.9117 29.4936 39.4726 29.6986 39.077C29.9035 38.6813 30.2005 38.3407 30.5646 38.0838C30.9286 37.8268 31.349 37.6611 31.7905 37.6004C32.2319 37.5398 32.6815 37.5861 33.1013 37.7354L95.3596 59.875V73.6688V73.6677Z" fill="white"/>
<path d="M96.1124 74.5448C96.1124 74.5448 96.2874 79.6021 94.4978 81.6594C92.7082 83.7167 93.7457 83.3302 90.8259 83.3302H34.6155C31.6967 83.3302 30.278 81.4011 30.278 80.7844L29.3301 74.5448" fill="#D0CFCE"/>
<path d="M90.8259 83.3333H34.6155C33.2136 83.3331 31.8693 82.776 30.8781 81.7846C29.8869 80.7932 29.3301 79.4488 29.3301 78.0469V41.701C29.3301 40.2992 29.8869 38.9547 30.8781 37.9633C31.8693 36.972 33.2136 36.4149 34.6155 36.4146H90.8259C92.228 36.4146 93.5726 36.9716 94.564 37.963C95.5554 38.9544 96.1124 40.299 96.1124 41.701V78.0469C96.1124 79.4489 95.5554 80.7936 94.564 81.785C93.5726 82.7764 92.228 83.3333 90.8259 83.3333V83.3333Z" stroke="black" stroke-width="0.5" stroke-miterlimit="10" stroke-linecap="round" stroke-linejoin="round"/>
<path d="M96.1124 74.5448C96.1124 74.5448 96.2874 79.6021 94.4978 81.6594C92.7082 83.7167 93.7457 83.3302 90.8259 83.3302H34.6155C31.6967 83.3302 30.278 81.4011 30.278 80.7844L29.3301 74.5448" stroke="black" stroke-width="0.22975" stroke-miterlimit="10" stroke-linecap="round" stroke-linejoin="round"/>
<path d="M90.8259 83.3333H34.6155C33.2136 83.3331 31.8693 82.776 30.8781 81.7846C29.8869 80.7932 29.3301 79.4488 29.3301 78.0469V41.701C29.3301 40.2992 29.8869 38.9547 30.8781 37.9633C31.8693 36.972 33.2136 36.4149 34.6155 36.4146H90.8259C92.228 36.4146 93.5726 36.9716 94.564 37.963C95.5554 38.9544 96.1124 40.299 96.1124 41.701V78.0469C96.1124 79.4489 95.5554 80.7936 94.564 81.785C93.5726 82.7764 92.228 83.3333 90.8259 83.3333V83.3333Z" stroke="black" stroke-width="0.5" stroke-miterlimit="10" stroke-linecap="round" stroke-linejoin="round"/>
<path d="M32.5117 75.5125H92.9284" stroke="black" stroke-width="0.5" stroke-miterlimit="10" stroke-linecap="round" stroke-linejoin="round"/>
<path d="M69.9792 88.4979C69.9792 93.6636 79.1875 95.8333 79.1875 95.8333H46.25C46.25 95.8333 55.4583 93.6636 55.4583 88.4979" stroke="black" stroke-width="0.5" stroke-miterlimit="10" stroke-linecap="round" stroke-linejoin="round"/>
</svg>
