<svg viewBox="0 0 125 125" fill="none" xmlns="http://www.w3.org/2000/svg">
<circle cx="62.5" cy="62.5" r="62.5" fill="#4B58F8"/>
<path d="M90.625 85.9375H34.375V60.9375L62.5 34.375L90.625 60.9375V85.9375Z" fill="#E8EAF6"/>
<path d="M85.9375 57.8125L78.125 50V39.0625H85.9375V57.8125Z" fill="#C5CAE9"/>
<path d="M34.375 85.9375H90.625V93.75H34.375V85.9375Z" fill="#C5CAE9"/>
<path d="M62.5 31.7188L31.25 60.7812L34.375 64.2187L62.5 38.125L90.625 64.2187L93.75 60.7812L62.5 31.7188Z" fill="#B71C1C"/>
<path d="M53.125 68.75H71.875V93.75H53.125V68.75Z" fill="#D84315"/>
<path d="M57.8125 51.5625H67.1875V60.9375H57.8125V51.5625Z" fill="#01579B"/>
<path d="M67.9688 80.4688C67.5 80.4688 67.1875 80.7812 67.1875 81.25V84.375C67.1875 84.8438 67.5 85.1562 67.9688 85.1562C68.4375 85.1562 68.75 84.8438 68.75 84.375V81.25C68.75 80.7812 68.4375 80.4688 67.9688 80.4688Z" fill="#FF8A65"/>
</svg>
