<svg viewBox="0 0 125 125" fill="none" xmlns="http://www.w3.org/2000/svg">
<circle cx="62.5" cy="62.5" r="62.5" fill="#09CF83"/>
<g clip-path="url(#clip0)">
<path d="M99.2371 29.6423C98.758 29.1511 98.0999 28.8757 97.4138 28.8793H27.5862C26.9001 28.8757 26.242 29.1511 25.763 29.6423C25.2718 30.1213 24.9964 30.7794 25 31.4655V85.7759C24.9964 86.462 25.2718 87.1201 25.763 87.5992C26.242 88.0904 26.9001 88.3658 27.5862 88.3621H96.1207C98.2632 88.3621 100 86.6253 100 84.4828V31.4655C100.004 30.7794 99.7283 30.1213 99.2371 29.6423Z" fill="#F3D55B"/>
<path d="M100.001 31.4655V84.4827C100.001 85.5115 99.5913 86.4979 98.8627 87.2241L93.5352 81.8965V35.3448L99.2377 29.6422C99.7289 30.1213 100.004 30.7794 100.001 31.4655Z" fill="#F0C419"/>
<path d="M31.4656 35.3448V81.8965L25.763 87.5991C25.2718 87.1201 24.9964 86.462 25 85.7759V31.4655C24.9964 30.7794 25.2718 30.1213 25.763 29.6422L31.4656 35.3448Z" fill="#F0C419"/>
<path d="M98.8628 87.2241C98.1366 87.9527 97.1501 88.3621 96.1214 88.3621H27.5869C26.9008 88.3657 26.2427 88.0903 25.7637 87.5991L31.4663 81.8965H93.5352L98.8628 87.2241Z" fill="#F29C1F"/>
<path d="M31.4648 35.3448H93.5338V81.8965H31.4648V35.3448Z" fill="#ECF0F1"/>
<path d="M93.5338 35.3448C93.5338 35.3448 31.4648 35.3448 31.4648 81.8965V35.3448H93.5338Z" fill="white"/>
<path d="M71.5528 44.3965H53.4494C52.7352 44.3965 52.1562 43.8176 52.1562 43.1034C52.1562 42.3893 52.7352 41.8103 53.4494 41.8103H71.5528C72.267 41.8103 72.8459 42.3893 72.8459 43.1034C72.8459 43.8176 72.267 44.3965 71.5528 44.3965Z" fill="#BDC3C7"/>
<path d="M58.6212 72.8448H40.5177C39.8036 72.8448 39.2246 72.2659 39.2246 71.5517C39.2246 70.8376 39.8036 70.2586 40.5177 70.2586H58.6212C59.3353 70.2586 59.9143 70.8376 59.9143 71.5517C59.9143 72.2659 59.3353 72.8448 58.6212 72.8448Z" fill="#95A5A5"/>
<path d="M75.4325 50.8621H49.5704C48.8563 50.8621 48.2773 50.2831 48.2773 49.569C48.2773 48.8548 48.8563 48.2758 49.5704 48.2758H75.4325C76.1467 48.2758 76.7256 48.8548 76.7256 49.569C76.7256 50.2831 76.1467 50.8621 75.4325 50.8621Z" fill="#BDC3C7"/>
<path d="M70.2578 77.2414L70.2578 94.0259C70.2547 94.4764 70.4862 94.896 70.869 95.1336C71.2517 95.3712 71.7305 95.3924 72.1328 95.1897L75.4949 93.4957C75.8617 93.3147 76.2919 93.3147 76.6587 93.4957L80.0208 95.1897C80.4231 95.3924 80.9019 95.3712 81.2846 95.1336C81.6674 94.896 81.8989 94.4764 81.8958 94.0259L81.8958 77.2414H70.2578Z" fill="#FF5364"/>
<path d="M58.6212 67.6724C55.4548 67.6725 52.342 66.8556 49.5837 65.3009C46.8207 66.8696 43.695 67.6873 40.5177 67.6724C39.8036 67.6724 39.2246 67.0935 39.2246 66.3793C39.2246 65.6651 39.8036 65.0862 40.5177 65.0862C42.8355 65.0965 45.1267 64.5926 47.2263 63.6108C45.8842 62.5819 45.0258 61.0452 44.8535 59.3629C44.8535 58.5871 45.1936 56.0345 49.5694 56.0345C53.9453 56.0345 54.2854 58.5819 54.2854 59.3629C54.1139 61.0473 53.2561 62.5866 51.9138 63.6185C54.0142 64.5959 56.3046 65.097 58.6212 65.0862C59.3353 65.0862 59.9143 65.6651 59.9143 66.3793C59.9143 67.0935 59.3353 67.6724 58.6212 67.6724ZM49.5694 58.6207C48.5867 58.6207 47.4397 58.8147 47.4397 59.3629C47.4397 59.9112 48.0203 61.0155 49.5591 62.2C50.935 61.1474 51.6992 60.047 51.6992 59.3629C51.6992 58.8147 50.5522 58.6207 49.5694 58.6207Z" fill="#95A5A5"/>
<path d="M88.3619 68.319C88.3619 69.8099 85.5779 70.7345 85.04 72.0315C84.4826 73.375 85.7757 75.9935 84.7632 77.006C83.7507 78.0185 81.1322 76.7254 79.79 77.2815C78.493 77.8194 77.5684 80.6035 76.0775 80.6035C74.5865 80.6035 73.6619 77.8194 72.365 77.2815C71.0214 76.7241 68.4029 78.0172 67.3904 77.0047C66.3779 75.9922 67.671 73.3737 67.115 72.0315C66.577 70.7345 63.793 69.8099 63.793 68.319C63.793 66.828 66.577 65.9035 67.115 64.6065C67.6723 63.2629 66.3792 60.6444 67.3917 59.6319C68.4042 58.6194 71.0227 59.9125 72.365 59.3565C73.6581 58.8185 74.5865 56.0345 76.0775 56.0345C77.5684 56.0345 78.493 58.8185 79.79 59.3565C81.1335 59.9138 83.752 58.6207 84.7645 59.6332C85.777 60.6457 84.4839 63.2642 85.04 64.6065C85.5779 65.9035 88.3619 66.828 88.3619 68.319Z" fill="#FB7B76"/>
<path d="M76.0786 72.8448C78.5782 72.8448 80.6045 70.8185 80.6045 68.319C80.6045 65.8194 78.5782 63.7931 76.0786 63.7931C73.579 63.7931 71.5527 65.8194 71.5527 68.319C71.5527 70.8185 73.579 72.8448 76.0786 72.8448Z" fill="#DF4D60"/>
</g>
<defs>
<clipPath id="clip0">
<rect width="75" height="75" fill="white" transform="translate(25 25)"/>
</clipPath>
</defs>
</svg>
