<svg viewBox="0 0 125 125" fill="none" xmlns="http://www.w3.org/2000/svg">
<circle cx="62.5" cy="62.5" r="62.5" fill="#00A3FF"/>
<path d="M96.8184 34.3204L85.4592 94.7796C85.4592 94.7796 83.8709 98.9725 79.5022 96.96L53.2902 75.7448L43.759 70.8816L27.7142 65.1791C27.7142 65.1791 25.2519 64.257 25.0134 62.2445C24.7749 60.232 27.7937 59.1421 27.7937 59.1421L91.5753 32.728C91.5753 32.728 96.8179 30.2963 96.8179 34.3214" fill="white"/>
<path d="M51.2847 94.0999C51.2847 94.0999 50.5196 94.0244 49.5656 90.8375C48.6132 87.6511 43.7676 70.8805 43.7676 70.8805L82.2911 45.0539C82.2911 45.0539 84.5154 43.6283 84.4359 45.0539C84.4359 45.0539 84.8329 45.3056 83.641 46.4795C82.4501 47.6539 53.3788 75.2413 53.3788 75.2413" fill="#D2E5F1"/>
<path d="M63.3498 83.8782L52.9823 93.8575C52.9823 93.8575 52.1715 94.5068 51.2852 94.0998L53.2705 75.5638" fill="#B5CFE4"/>
</svg>
