<svg viewBox="0 0 125 125" fill="none" xmlns="http://www.w3.org/2000/svg">
<circle cx="62.5" cy="62.5" r="62.5" fill="#01F495"/>
<g clip-path="url(#clip0)">
<path d="M99.8336 44.1238C99.8336 48.2137 95.9617 51.5242 91.1863 51.5242H72.782C68.002 51.5242 64.1289 48.2137 64.1289 44.1238C64.1289 40.0352 68.002 36.7188 72.782 36.7188H91.1863C95.9629 36.7188 99.8336 40.0352 99.8336 44.1238Z" fill="#A7A8AC"/>
<path d="M87.3207 43.3703C83.3457 43.3656 76.6109 43.9211 73.1762 41.2773C71.3469 39.8652 70.3461 38.4883 69.9336 37.1641C66.5574 38.1695 64.1211 40.8918 64.1211 44.125C64.1211 48.2148 67.9941 51.5254 72.7742 51.5254H91.1785C95.9539 51.5254 99.8258 48.2148 99.8258 44.125C99.8258 43.7523 99.7625 43.3996 99.7016 43.0422C95.5918 43.3316 91.475 43.3703 87.316 43.3703" fill="#929497"/>
<path d="M93.109 48.4727H36.9117C36.4453 48.4727 36.0586 48.7434 36.0586 49.0727V87.5934C36.0586 87.9168 36.4453 88.1875 36.9117 88.1875H93.1078C93.3598 88.1875 93.5531 88.1242 93.6891 88.0281C93.6891 88.0281 93.6973 88.0176 93.7078 88.0129L93.7324 87.9883C93.8005 87.9467 93.857 87.8886 93.8965 87.8193C93.9361 87.7501 93.9574 87.6719 93.9586 87.5922V63.0895V49.0715C93.9586 48.7434 93.5719 48.4727 93.1078 48.4727" fill="#A7A8AC"/>
<path d="M90.8047 50.534H39.7191C39.2961 50.534 38.9434 50.7754 38.9434 51.066V85.218C38.9434 85.5016 39.2961 85.7441 39.7191 85.7441H90.8047C91.032 85.7441 91.2113 85.6902 91.3273 85.6047C91.3273 85.6047 91.3414 85.5894 91.3461 85.5894C91.3555 85.5894 91.366 85.5754 91.3707 85.5695C91.4327 85.5335 91.4845 85.4821 91.521 85.4204C91.5575 85.3586 91.5776 85.2885 91.5793 85.2168V63.4926V51.0648C91.5793 50.7754 91.2219 50.534 90.8047 50.534Z" fill="#E7E6E6"/>
<path d="M51.1711 48.4609H29.4152C28.0505 48.4671 26.7045 48.7794 25.4766 49.375V61.8426C26.6484 62.4027 27.9809 62.7555 29.4152 62.7555H51.1711C55.7027 62.7555 59.3742 59.5551 59.3742 55.6059C59.3742 51.6613 55.6992 48.4609 51.1711 48.4609Z" fill="#E7E6E6"/>
<path d="M80.0121 62.9617H43.8316C43.5316 62.9617 43.2832 63.1258 43.2832 63.325V86.4109C43.2832 86.6043 43.5316 86.7695 43.8316 86.7695H80.0227C80.154 86.775 80.2841 86.7416 80.3965 86.6734L80.407 86.6641L80.4246 86.6488C80.5102 86.5937 80.5711 86.5129 80.5711 86.4109V71.7262V63.325C80.5711 63.1258 80.3203 62.9617 80.0227 62.9617" fill="#A7A8AC"/>
<path d="M77.2773 64.4066H46.559C46.3059 64.4066 46.0938 64.552 46.0938 64.7207V84.9262C46.0938 85.0961 46.3059 85.2356 46.559 85.2356H77.2867C77.3983 85.2401 77.5088 85.2115 77.6043 85.1535L77.6148 85.1441C77.6148 85.1441 77.6242 85.1395 77.6289 85.1336C77.7016 85.0855 77.7555 85.0141 77.7555 84.9262V72.0731V64.7207C77.7555 64.552 77.5387 64.4066 77.2867 64.4066" fill="#243438"/>
<path d="M56.368 69.1644H50.5402C50.4922 69.1644 50.4512 69.2559 50.4512 69.3672V82.5391C50.4512 82.6516 50.4922 82.743 50.5402 82.743H56.368C56.3938 82.743 56.4137 82.723 56.4277 82.6902C56.4277 82.6902 56.4301 82.6902 56.4301 82.6844L56.4324 82.675C56.4508 82.6321 56.4592 82.5856 56.457 82.5391V74.1625V69.3672C56.457 69.2559 56.416 69.1644 56.368 69.1644Z" fill="#E7E6E6"/>
<path d="M72.2606 70.2941H66.4328C66.3836 70.2941 66.3438 70.3469 66.3438 70.4055V77.3758C66.3438 77.4344 66.3836 77.4824 66.4328 77.4824H72.2606C72.2863 77.4824 72.3074 77.473 72.3215 77.4543H72.3238L72.3262 77.4484C72.3414 77.4344 72.3508 77.4063 72.3508 77.3758V72.9437V70.4055C72.3508 70.348 72.3098 70.2941 72.2606 70.2941Z" fill="#E7E6E6"/>
<path d="M81.8566 45.8547H73.6324C73.5645 45.8547 73.5059 45.9133 73.5059 45.9707V53.4777C73.5059 53.541 73.5656 53.5938 73.6324 53.5938H81.8566C81.8725 53.5943 81.8882 53.5916 81.903 53.5857C81.9177 53.5799 81.931 53.571 81.9422 53.5598H81.9469L81.9492 53.5551C81.96 53.5453 81.9685 53.5333 81.9744 53.52C81.9802 53.5067 81.9832 53.4923 81.9832 53.4777V48.707V45.9707C81.9832 45.9133 81.9246 45.8547 81.8566 45.8547Z" fill="#BB253F"/>
<path d="M80.8367 44.9219H72.6125C72.5457 44.9219 72.4883 44.9793 72.4883 45.0391V52.5461C72.4883 52.6082 72.5469 52.6621 72.6125 52.6621H80.8379C80.8535 52.6624 80.869 52.6595 80.8835 52.6536C80.898 52.6478 80.9112 52.6391 80.9223 52.6281H80.927L80.9293 52.6234C80.94 52.6136 80.9485 52.6016 80.9544 52.5883C80.9602 52.575 80.9633 52.5606 80.9633 52.5461V47.7742V45.0391C80.9633 44.9793 80.9047 44.9219 80.8367 44.9219Z" fill="#DF2C43"/>
<path d="M29.4356 67.1476V53.8797V45.4398C29.4356 45.2652 29.4039 45.1105 29.3676 45.1105H25.0668C25.0317 45.1105 25 45.2641 25 45.4387V67.1476C24.9996 67.2271 25.007 67.3064 25.0223 67.3844C25.0317 67.4336 25.0481 67.4758 25.0656 67.4758H29.3676C29.4039 67.4758 29.4356 67.3223 29.4356 67.1476Z" fill="#243438"/>
</g>
<defs>
<clipPath id="clip0">
<rect width="75" height="75" fill="white" transform="translate(25 25)"/>
</clipPath>
</defs>
</svg>
